# xmcd
# 
# Track frame offsets:
#     150
#     16940
#     29487
#     44682
#     72257
# 
# Disc length: 4440
# 
# Revision: 1
# Processed by: cddbd v1.5.2PL0 Copyright (c) Steve Scherf et al.
# Submitted via: BonkEnc v1.0.6
# 
DISCID=3f115605
DTITLE=SHAKALABBITS - GO☆SKIP IT
DYEAR=2004
DGENRE=Rock
TTITLE0=GO
TTITLE1=JELLY FISH
TTITLE2=IMPALA
TTITLE3=LOS DIOS
TTITLE4=データ
EXTD=YEAR: 2004.7.28
EXTT0=
EXTT1=
EXTT2=
EXTT3=
EXTT4=
PLAYORDER=
